<svg width="163" height="39" viewBox="0 0 163 39" fill="none" xmlns="http://www.w3.org/2000/svg">
<mask id="mask0_906_6" style="mask-type:luminance" maskUnits="userSpaceOnUse" x="0" y="-2" width="163" height="41">
<path d="M162.432 -1.00024H0.431641V38.9998H162.432V-1.00024Z" fill="white"/>
</mask>
<g mask="url(#mask0_906_6)">
<path d="M47.1535 16.4526C48.9333 16.4526 50.4272 17.0771 51.5396 18.1617V16.8471H56.1482V30.4542H51.6031V28.9095H51.5396C50.5543 30.027 48.9969 30.8486 47.1535 30.8486C43.2441 30.8486 40.5107 27.6276 40.5107 23.6506C40.5107 19.6736 43.2441 16.4526 47.1535 16.4526ZM48.5202 26.8388C50.3 26.8388 51.6031 25.5241 51.6031 23.6506C51.6031 21.7771 50.2365 20.4296 48.5202 20.4296C46.7721 20.4296 45.4054 21.7443 45.4054 23.6506C45.4054 25.5241 46.6449 26.8388 48.5202 26.8388Z" fill="#004876"/>
<path d="M65.1106 26.8718H71.213V30.4544H57.3872L63.9981 20.4298H58.4996V16.8472H71.7215L65.1106 26.8718Z" fill="#004876"/>
<path d="M76.8071 24.308C76.8071 26.4116 78.5234 27.1017 79.6994 27.1017C81.1932 27.1017 81.8289 26.806 82.9413 25.5898L86.2782 27.299C84.7849 29.8626 82.3374 30.8486 79.3498 30.8486C75.3133 30.8486 72.0078 27.6276 72.0078 23.6506C72.0078 19.6736 75.3133 16.4526 79.3498 16.4526C83.4181 16.4526 86.5014 18.8848 86.5014 23.6506C86.5014 23.8478 86.5014 24.1436 86.4695 24.2751H76.8071V24.308ZM81.9878 21.7115C81.7653 20.2652 80.8118 19.5093 79.4769 19.5093C77.8877 19.5093 76.9978 20.4625 76.9342 21.7115H81.9878Z" fill="#004876"/>
<path d="M87.7085 16.8471H92.3175V18.8191H92.3813C92.3813 18.8191 93.8427 16.4526 96.4808 16.4526C98.1974 16.4526 99.4052 17.3071 99.4052 17.3071L97.4663 21.2841C97.4663 21.2841 96.6084 20.5282 95.0824 20.5282C92.6986 20.5282 92.3494 22.9276 92.3494 23.2891V30.4542H87.7404V16.8471H87.7085Z" fill="#004876"/>
<path d="M102.298 13.9543C102.33 9.97725 104.205 7.24927 107.541 7.24927C109.893 7.24927 111.356 8.46533 111.356 8.46533L109.735 11.785C109.735 11.785 109.099 11.4235 108.368 11.4235C107.192 11.4235 106.938 12.2123 106.938 14.0858V16.8467H110.021V20.4293H106.906V30.4538H102.298V20.4293H100.359V16.8467H102.298V13.9543Z" fill="#004876"/>
<path d="M117.235 7.64404H112.627V30.4543H117.235V7.64404Z" fill="#004876"/>
<path d="M126.358 16.4526C130.775 16.4526 134.335 19.4107 134.335 23.6506C134.335 27.8248 130.966 30.8486 126.358 30.8486C121.558 30.8486 118.316 27.8577 118.316 23.6506C118.316 19.4107 121.844 16.4526 126.358 16.4526ZM126.326 26.8388C128.105 26.8388 129.409 25.5241 129.409 23.6506C129.409 21.7771 128.042 20.4296 126.326 20.4296C124.577 20.4296 123.211 21.7443 123.211 23.6506C123.211 25.5241 124.451 26.8388 126.326 26.8388Z" fill="#004876"/>
<path d="M141.995 16.4526C143.775 16.4526 145.269 17.0771 146.381 18.1617V16.8471H150.989V30.4542H146.445V28.9095H146.381C145.396 30.027 143.839 30.8486 141.995 30.8486C138.086 30.8486 135.353 27.6276 135.353 23.6506C135.384 19.6736 138.117 16.4526 141.995 16.4526ZM143.394 26.8388C145.205 26.8388 146.477 25.5241 146.477 23.6506C146.477 21.7771 145.109 20.4296 143.394 20.4296C141.645 20.4296 140.279 21.7443 140.279 23.6506C140.279 25.5241 141.519 26.8388 143.394 26.8388Z" fill="#004876"/>
<path d="M154.486 11.7854H159.094V16.847H161.892V20.4296H159.094V24.7352C159.094 26.0171 159.412 26.6087 160.144 26.6087C160.747 26.6087 161.288 26.1814 161.288 26.1814L162.432 29.9612C162.432 29.9612 160.938 30.8158 159.063 30.8158C155.408 30.8158 154.518 28.0221 154.518 25.6226V20.4296H152.579V16.847H154.518V11.7854H154.486Z" fill="#004876"/>
<path d="M27.6701 13.3958L27.1615 7.90691L0.431641 -1.00024L3.83247 36.7319L12.414 34.6283L9.96664 7.5125L27.6701 13.3958Z" fill="#004876"/>
<path d="M33.9314 33.774L32.2786 14.9407L27.67 13.396L29.1639 30.4872L12.4141 34.6285L12.8272 38.9999L33.9314 33.774Z" fill="#FF671D"/>
</g>
</svg>
