<svg width="145" height="27" viewBox="0 0 145 27" fill="none" xmlns="http://www.w3.org/2000/svg">
<path fill-rule="evenodd" clip-rule="evenodd" d="M17.7616 19.99L19.2279 23.5613L20.6477 27.0001H14.8755L16.2953 23.5613L17.7616 19.99Z" fill="#ED1C24"/>
<path fill-rule="evenodd" clip-rule="evenodd" d="M11.1401 1.84861C12.195 -0.715564 16.0166 -0.516791 17.0184 1.84861L17.7814 3.64419C18.0269 3.0545 18.2724 2.45818 18.5179 1.84861C19.5728 -0.715564 23.3944 -0.510166 24.4029 1.84861L35.0914 27.0265H29.6244L21.4571 7.85155L20.5149 10.0844C22.9499 15.829 25.1593 21.2687 27.6008 27H22.2466C20.7538 23.495 19.2477 20.0297 17.7682 16.5644C16.2886 20.0496 14.7626 23.5016 13.2632 27.0199H7.90897C10.3439 21.2687 12.5865 15.8621 15.028 10.1176L14.066 7.85155L5.91856 27H0.431641C2.85331 21.3019 8.66533 7.87143 11.1401 1.8221V1.84861Z" fill="#939598"/>
<path d="M37.4268 27.0001V4.55859H44.2207L48.2944 19.8774L52.3283 4.55859H59.1356V27.0001H54.9225V9.33577L50.4574 27.0001H46.0851L41.6398 9.33577V27.0001H37.4268ZM63.6472 27.0001V4.55859H80.307V8.35516H68.1787V13.3311H79.4577V17.1078H68.1787V23.1903H80.7117V26.9736L63.6472 27.0001ZM89.642 27.0001V8.35516H82.9741V4.55859H100.835V8.35516H94.2001V27.0001H89.642ZM121.701 27.0001H116.765L114.774 21.9049H105.817L103.966 27.0001H99.1496L107.914 4.55859H112.718L121.714 27.0001H121.701ZM113.348 18.1215L110.249 9.79295L107.211 18.1215H113.348ZM124.169 27.0001V4.55859H128.707V14.4972L137.87 4.55859H143.974L135.514 13.298L144.405 27.0001H138.566L132.39 16.4651L128.707 20.2219V27.0001H124.169Z" fill="#ED1C24"/>
</svg>
